<?xml version="1.0" standalone="no"?>
<!DOCTYPE svg PUBLIC "-//W3C//DTD SVG 20010904//EN"
 "http://www.w3.org/TR/2001/REC-SVG-20010904/DTD/svg10.dtd">
<svg version="1.0" xmlns="http://www.w3.org/2000/svg"
 width="200.000000pt" height="200.000000pt" viewBox="0 0 200.000000 200.000000"
 preserveAspectRatio="xMidYMid meet">
<metadata>
Created by potrace 1.11, written by Peter Selinger 2001-2013
</metadata>
<g transform="translate(0.000000,200.000000) scale(0.100000,-0.100000)"
fill="#000000" stroke="none">
<path d="M949 1768 c-19 -4 -47 -9 -64 -12 -136 -23 -287 -114 -362 -218 -38
-52 -95 -152 -93 -163 1 -5 -7 -67 -16 -128 -2 -15 0 -36 5 -46 19 -34 20 -73
4 -135 -8 -33 -19 -68 -23 -76 -5 -9 -5 -22 0 -30 12 -22 -15 -100 -77 -226
-75 -154 -73 -178 25 -339 80 -132 104 -142 242 -102 49 14 453 16 565 4 33
-4 83 -10 110 -13 28 -3 70 -15 95 -27 55 -26 133 -26 169 0 14 11 46 49 71
84 25 36 59 86 77 111 34 48 46 109 30 149 -6 13 -16 42 -23 64 -6 22 -24 69
-40 105 -18 43 -29 87 -31 130 -2 36 -10 90 -18 120 -8 30 -13 68 -10 85 20
110 25 219 10 259 -19 56 -75 150 -116 199 -113 132 -383 236 -530 205z"/>
</g>
</svg>
